<svg xmlns="http://www.w3.org/2000/svg" xmlns:xlink="http://www.w3.org/1999/xlink" width="1024" height="1024" class="icon" p-id="3784" t="1586976064135" version="1.1" viewBox="0 0 1024 1024"><defs><style type="text/css"/></defs><path fill="#666" d="M275.2 192c-44.8 0-83.2 12.8-83.2 44.8V256h640v-19.2c0-32-38.4-44.8-76.8-44.8H275.2z" p-id="3785"/><path fill="#666" d="M704 236.8l-19.2-128c0-25.6-25.6-44.8-51.2-44.8H390.4c-25.6 0-51.2 19.2-51.2 44.8l-19.2 128c0 25.6 12.8 19.2 38.4 19.2h307.2c25.6 0 38.4 6.4 38.4-19.2zM384 256l12.8-128h230.4l12.8 128H384z m396.8 64H243.2c-32 0-51.2 25.6-51.2 57.6l44.8 524.8c0 32 32 57.6 64 57.6h422.4c32 0 57.6-25.6 64-57.6l44.8-524.8c0-32-19.2-57.6-51.2-57.6zM384 896H288L256 384h128v512z m192 0H448V384h128v512z m160 0H640V384h128l-32 512z" p-id="3786"/></svg>