<svg xmlns="http://www.w3.org/2000/svg" xmlns:xlink="http://www.w3.org/1999/xlink" width="211.523" height="200" class="icon" p-id="7575" t="1586602389590" version="1.1" viewBox="0 0 1083 1024"><defs><style type="text/css"/></defs><path fill="#FC284F" d="M391.996046 25.880069C159.248394-84.368819-34.789649 184.638467 5.389946 386.026436s255.77742 445.405507 440.995551 602.69392a146.998517 146.998517 0 0 0 190.118082 0c182.768156-157.288413 397.385991-397.385991 440.995551-602.69392S918.740732-84.368819 685.99308 25.880069l-123.478755 67.129323a48.999506 48.999506 0 0 1-48.999505 0z" p-id="7576"/><path fill="#FF4D7C" d="M685.99308 25.880069l-123.478755 67.129323A48.999506 48.999506 0 0 1 538.994563 98.399337v925.600663a146.998517 146.998517 0 0 0 95.059041-35.279644c182.768156-157.288413 397.385991-397.385991 440.995551-602.69392S918.740732-84.368819 685.99308 25.880069z" p-id="7577"/></svg>